<svg width="900" height="130" viewBox="0 0 900 130" fill="none" xmlns="http://www.w3.org/2000/svg">
<path d="M14.5006 127.289H1V2.71123H14.5006V127.289Z" stroke="black"/>
<path d="M131.506 94.7754H88.6132L78.98 127.289H65.0575L104.153 2.71123H115.966L155.132 127.289H141.28L131.506 94.7754ZM92.6915 81.2567H127.498L110.059 22.9893L92.6915 81.2567Z" stroke="black"/>
<path d="M179.18 34.7112L179.602 46.3476C185.414 37.4492 193.008 33 202.384 33C218.463 33 226.572 44.0374 226.713 66.1123V127.289H213.705V66.0267C213.658 59.3529 212.392 54.4189 209.908 51.2246C207.47 48.0303 203.649 46.4332 198.446 46.4332C194.227 46.4332 190.524 47.8021 187.336 50.5401C184.149 53.2781 181.664 56.8717 179.883 61.3209V127.289H166.874V34.7112H179.18Z" stroke="black"/>
<path d="M260.464 127.289H247.456V34.7112H260.464V127.289ZM246.401 10.1551C246.401 7.58824 247.034 5.42068 248.3 3.65241C249.612 1.88414 251.534 1 254.066 1C256.597 1 258.519 1.88414 259.832 3.65241C261.144 5.42068 261.8 7.58824 261.8 10.1551C261.8 12.7219 261.144 14.861 259.832 16.5722C258.519 18.2834 256.597 19.139 254.066 19.139C251.534 19.139 249.612 18.2834 248.3 16.5722C247.034 14.861 246.401 12.7219 246.401 10.1551Z" stroke="black"/>
<path d="M293.583 34.7112L293.935 44.9786C299.513 36.9929 307.037 33 316.506 33C327.147 33 334.39 37.9626 338.233 47.8877C340.765 43.4385 344.046 39.8449 348.078 37.107C352.156 34.369 356.961 33 362.492 33C379.181 33 387.665 43.7522 387.947 65.2567V127.289H374.938V66.1979C374.938 59.5811 373.696 54.6471 371.211 51.3957C368.727 48.0873 364.555 46.4332 358.695 46.4332C353.867 46.4332 349.859 48.2014 346.671 51.738C343.484 55.2175 341.632 59.9233 341.116 65.8556V127.289H328.038V66.6257C328.038 53.164 322.623 46.4332 311.795 46.4332C303.263 46.4332 297.427 50.8538 294.286 59.6952V127.289H281.278V34.7112H293.583Z" stroke="black"/>
<path d="M454.606 127.289C453.856 125.463 453.246 122.212 452.777 117.535C446.73 125.178 439.511 129 431.12 129C423.62 129 417.456 126.433 412.627 121.299C407.846 116.109 405.455 109.549 405.455 101.62C405.455 91.9804 408.455 84.508 414.455 79.2032C420.503 73.8414 428.987 71.1604 439.91 71.1604H452.567V63.8877C452.567 58.3547 451.207 53.9626 448.488 50.7112C445.769 47.4029 441.761 45.7487 436.464 45.7487C431.823 45.7487 427.933 47.1747 424.792 50.0267C421.651 52.8788 420.081 56.3298 420.081 60.3797H407.002C407.002 55.7594 408.338 51.3102 411.01 47.0321C413.729 42.697 417.385 39.2745 421.979 36.7647C426.62 34.2549 431.706 33 437.238 33C446.004 33 452.871 35.6809 457.84 41.0428C462.809 46.3476 465.387 53.6774 465.575 63.0321V105.642C465.575 114.141 466.466 120.9 468.247 125.92V127.289H454.606ZM433.019 115.225C437.097 115.225 440.964 113.941 444.621 111.374C448.277 108.807 450.926 105.471 452.567 101.364V82.369H442.371C426.433 82.369 418.463 88.0446 418.463 99.3957C418.463 104.358 419.823 108.237 422.542 111.032C425.261 113.827 428.753 115.225 433.019 115.225Z" stroke="black"/>
<path d="M503.616 12.2941V34.7112H517.819V46.9465H503.616V104.358C503.616 108.066 504.248 110.861 505.514 112.743C506.78 114.569 508.936 115.481 511.983 115.481C513.483 115.481 515.546 115.139 518.171 114.455V127.289C514.749 128.43 511.421 129 508.186 129C502.373 129 497.99 126.861 495.037 122.583C492.084 118.305 490.607 112.23 490.607 104.358V46.9465H476.755V34.7112H490.607V12.2941H503.616Z" stroke="black"/>
<path d="M564.65 129C554.337 129 545.946 124.893 539.477 116.679C533.008 108.408 529.773 97.3708 529.773 83.5668V80.6578C529.773 71.4742 531.203 63.2888 534.062 56.1016C536.969 48.8574 541 43.2103 546.157 39.1604C551.36 35.0535 556.985 33 563.032 33C572.923 33 580.611 36.9643 586.096 44.893C591.58 52.8217 594.323 64.1729 594.323 78.9465V85.5348H542.781C542.969 94.6613 545.149 102.048 549.321 107.695C553.54 113.285 558.884 116.08 565.353 116.08C569.947 116.08 573.837 114.939 577.025 112.658C580.213 110.376 583.002 107.353 585.393 103.588L593.338 111.118C586.963 123.039 577.4 129 564.65 129ZM563.032 46.0053C557.782 46.0053 553.376 48.344 549.813 53.0214C546.25 57.6417 544.047 64.1444 543.203 72.5294H581.314V71.3315C580.939 63.2888 579.158 57.0713 575.97 52.6791C572.783 48.2299 568.47 46.0053 563.032 46.0053Z" stroke="black"/>
<path d="M677.365 71.7594C665.787 67.7094 657.349 62.7469 652.052 56.8717C646.802 50.9394 644.176 43.6381 644.176 34.9679C644.176 25.1569 647.387 17.057 653.81 10.6684C660.279 4.22282 668.67 1 678.983 1C686.014 1 692.272 2.65419 697.757 5.96257C703.288 9.27094 707.554 13.8342 710.554 19.6524C713.601 25.4706 715.125 31.8307 715.125 38.7326H701.554C701.554 31.2032 699.585 25.2995 695.647 21.0214C691.71 16.6863 686.155 14.5187 678.983 14.5187C672.326 14.5187 667.123 16.3155 663.373 19.9091C659.669 23.4456 657.818 28.3797 657.818 34.7112C657.818 39.7879 659.576 44.0945 663.091 47.631C666.654 51.1105 672.678 54.3048 681.162 57.2139C689.694 60.123 696.351 63.3458 701.132 66.8824C705.96 70.3619 709.523 74.4403 711.82 79.1176C714.164 83.795 715.336 89.2995 715.336 95.631C715.336 105.727 712.101 113.827 705.632 119.93C699.163 125.977 690.514 129 679.686 129C672.654 129 666.091 127.374 659.997 124.123C653.903 120.815 649.192 116.308 645.864 110.604C642.583 104.9 640.942 98.426 640.942 91.1818H654.513C654.513 98.7112 656.786 104.672 661.333 109.064C665.927 113.399 672.045 115.567 679.686 115.567C686.811 115.567 692.272 113.799 696.069 110.262C699.866 106.725 701.765 101.906 701.765 95.8021C701.765 89.6988 700.007 84.9929 696.491 81.6845C692.975 78.3191 686.6 75.0107 677.365 71.7594Z" stroke="black"/>
<path d="M766.596 105.471L795.847 2.71123H810.613L772.643 127.289H760.689L722.789 2.71123H737.485L766.596 105.471Z" stroke="black"/>
<path d="M899 110.947C895.531 116.993 890.679 121.528 884.445 124.551C878.257 127.517 871.038 129 862.787 129C854.443 129 847.037 126.633 840.568 121.898C834.099 117.107 829.083 110.319 825.52 101.535C822.004 92.7504 820.2 82.5686 820.106 70.9893V60.123C820.106 41.3565 823.692 26.8111 830.864 16.4866C838.083 6.16221 848.209 1 861.241 1C871.929 1 880.53 4.3369 887.046 11.0107C893.562 17.6275 897.547 27.0392 899 39.246H885.499C882.968 22.7611 874.905 14.5187 861.311 14.5187C852.264 14.5187 845.396 18.3975 840.708 26.1551C836.068 33.8556 833.724 45.0356 833.677 59.6952V69.877C833.677 83.852 836.302 94.975 841.552 103.246C846.802 111.46 853.904 115.567 862.858 115.567C867.921 115.567 872.35 114.882 876.147 113.513C879.944 112.144 883.085 109.834 885.57 106.583V78.6043H861.873V65.2567H899V110.947Z" stroke="black"/>
</svg>
