<?xml version="1.0" encoding="iso-8859-1"?>
<!-- Generator: Adobe Illustrator 19.0.0, SVG Export Plug-In . SVG Version: 6.00 Build 0)  -->
<svg version="1.1" id="Capa_1" xmlns="http://www.w3.org/2000/svg" xmlns:xlink="http://www.w3.org/1999/xlink" x="0px" y="0px"
	 viewBox="0 0 512.006 512.006" style="enable-background:new 0 0 512.006 512.006;" xml:space="preserve">
<g>
	<g>
		<ellipse transform="matrix(0.7071 -0.7071 0.7071 0.7071 62.4777 325.8028)" cx="424.518" cy="87.484" rx="30" ry="119.999"/>
	</g>
</g>
<g>
	<g>
		<path d="M382.093,129.917c-18.581-18.582-41.421-44.288-57.089-70.153v29.238c-0.005,25.475-9.685,51.706-22.79,72.827
			c33.418-3.973,67.934,5.939,94.475,29.958c7.985-1.459,18.079-3.78,26.319-3.781h29.238
			C426.381,172.338,400.674,148.499,382.093,129.917z"/>
	</g>
</g>
<g>
	<g>
		<path d="M390.699,397.081l-10.607-10.605l-21.213,21.213l10.605,10.607c5.864,5.861,15.352,5.861,21.215,0
			C396.56,412.433,396.56,402.944,390.699,397.081z"/>
	</g>
</g>
<g>
	<g>
		<path d="M348.272,439.509l-10.605-10.607l-21.215,21.213l10.607,10.607c5.863,5.863,15.35,5.863,21.213,0
			C354.135,454.859,354.135,445.372,348.272,439.509z"/>
	</g>
</g>
<g>
	<g>
		<g>
			<path d="M380.092,216.771c-35.147-35.147-92.131-35.147-127.278,0L36.22,433.362l-10.605-10.605
				c-5.863-5.863-15.352-5.863-21.215,0c-5.861,5.861-5.861,15.35,0,21.213c3.557,3.556,60.869,60.869,63.64,63.64
				c5.863,5.861,15.352,5.861,21.213,0c5.863-5.863,5.863-15.352,0-21.215L78.648,475.79l131.739-131.741l42.427,42.427
				l-21.215,21.213c-11.715,11.717-30.709,11.717-42.426,0l-42.427,42.426c35.149,35.149,92.133,35.149,127.28,0l106.066-106.066
				C415.239,308.902,415.239,251.918,380.092,216.771z M295.239,344.051l-21.213,21.213l-42.427-42.427l21.213-21.214l42.427,42.426
				V344.051z M337.666,301.623l-21.215,21.215v-0.002l-42.426-42.427l21.214-21.213c11.717-11.715,30.71-11.715,42.427,0
				C349.381,270.913,349.381,289.906,337.666,301.623z"/>
			<polygon points="68.04,507.61 68.04,507.61 68.04,507.61 			"/>
		</g>
	</g>
</g>
<g>
	<g>
		<path d="M210.386,174.343l21.213,21.215l21.215-21.215l-21.215-21.213l10.607-10.605c5.863-5.863,5.863-15.352,0-21.215
			c-5.863-5.861-15.35-5.861-21.213,0L51.288,291.016c-5.863,5.863-5.863,15.352,0,21.213c5.863,5.863,15.35,5.863,21.213,0
			l10.607-10.607v0.002l21.213,21.213l21.213-21.213l-21.213-21.213v-0.002l21.213-21.213l21.213,21.215l21.215-21.215
			l-21.215-21.213l21.215-21.215v0.002l21.213,21.213l21.213-21.213l-21.213-21.213v-0.002L210.386,174.343z"/>
	</g>
</g>
<g>
</g>
<g>
</g>
<g>
</g>
<g>
</g>
<g>
</g>
<g>
</g>
<g>
</g>
<g>
</g>
<g>
</g>
<g>
</g>
<g>
</g>
<g>
</g>
<g>
</g>
<g>
</g>
<g>
</g>
</svg>
